<svg xmlns="http://www.w3.org/2000/svg" width="820" height="764" viewBox="0 0 820 764" font-family="Inter, system-ui, sans-serif">
<defs><marker id="arrow" viewBox="0 0 10 10" refX="8" refY="5" markerWidth="7" markerHeight="7" orient="auto"><path d="M0,0 L10,5 L0,10 z" fill="#1E3A5F"/></marker></defs>
<rect width="100%" height="100%" fill="#F5F1EA"/>
<text x="40" y="40" font-size="20" font-weight="700" fill="#1E3A5F">Category Fluency</text>
<text x="40" y="64" font-size="12" fill="#34495E">category-fluency · spec 2.0.0 · generated from the compiled XState machine</text>
<rect x="570" y="28" width="14" height="14" rx="3" fill="#E8EEF6" stroke="#1E3A5F"/><text x="590" y="40" font-size="12" fill="#34495E">protocol zone</text>
<rect x="690" y="28" width="14" height="14" rx="3" fill="#E6F9FB" stroke="#129FAD"/><text x="710" y="40" font-size="12" fill="#34495E">chrome zone</text>
<rect x="40" y="96" width="520" height="60" rx="12" fill="#E8EEF6" stroke="#1E3A5F" stroke-width="2"/>
<text x="56" y="120" font-size="15" font-weight="700" fill="#1E3A5F">1. practiceIntro</text>
<text x="544" y="120" font-size="12" text-anchor="end" fill="#34495E">say · protocol</text>
<text x="56" y="140" font-size="12" fill="#34495E">say &quot;practiceIntro&quot;</text>
<line x1="300" y1="156" x2="300" y2="178" stroke="#1E3A5F" stroke-width="2" marker-end="url(#arrow)"/>
<rect x="40" y="180" width="520" height="112" rx="12" fill="#E6F9FB" stroke="#129FAD" stroke-width="2"/>
<text x="56" y="204" font-size="15" font-weight="700" fill="#1E3A5F">2. practice</text>
<text x="544" y="204" font-size="12" text-anchor="end" fill="#34495E">practice · chrome</text>
<text x="56" y="224" font-size="12" fill="#34495E">practice clothing · 1 attempt · feedback by code</text>
<rect x="56" y="234" width="82.8" height="20" rx="10" fill="#FFFFFF" stroke="#129FAD"/>
<text x="97.4" y="248" font-size="11" text-anchor="middle" fill="#1E3A5F">listening</text>
<rect x="144.8" y="234" width="82.8" height="20" rx="10" fill="#FFFFFF" stroke="#129FAD"/>
<text x="186.20000000000002" y="248" font-size="11" text-anchor="middle" fill="#1E3A5F">capturing</text>
<rect x="233.60000000000002" y="234" width="68.4" height="20" rx="10" fill="#FFFFFF" stroke="#129FAD"/>
<text x="267.8" y="248" font-size="11" text-anchor="middle" fill="#1E3A5F">judging</text>
<rect x="308" y="234" width="75.6" height="20" rx="10" fill="#FFFFFF" stroke="#129FAD"/>
<text x="345.8" y="248" font-size="11" text-anchor="middle" fill="#1E3A5F">fb-code0</text>
<rect x="389.6" y="234" width="97.2" height="20" rx="10" fill="#FFFFFF" stroke="#129FAD"/>
<text x="438.20000000000005" y="248" font-size="11" text-anchor="middle" fill="#1E3A5F">fb-code1one</text>
<rect x="56" y="260" width="104.4" height="20" rx="10" fill="#FFFFFF" stroke="#129FAD"/>
<text x="108.2" y="274" font-size="11" text-anchor="middle" fill="#1E3A5F">fb-code1many</text>
<rect x="166.4" y="260" width="75.6" height="20" rx="10" fill="#FFFFFF" stroke="#129FAD"/>
<text x="204.2" y="274" font-size="11" text-anchor="middle" fill="#1E3A5F">fb-code2</text>
<rect x="248" y="260" width="75.6" height="20" rx="10" fill="#FFFFFF" stroke="#129FAD"/>
<text x="285.8" y="274" font-size="11" text-anchor="middle" fill="#1E3A5F">fb-code3</text>
<rect x="329.6" y="260" width="75.6" height="20" rx="10" fill="#FFFFFF" stroke="#129FAD"/>
<text x="367.40000000000003" y="274" font-size="11" text-anchor="middle" fill="#1E3A5F">fb-code4</text>
<line x1="300" y1="292" x2="300" y2="314" stroke="#1E3A5F" stroke-width="2" marker-end="url(#arrow)"/>
<rect x="40" y="316" width="520" height="60" rx="12" fill="#E8EEF6" stroke="#1E3A5F" stroke-width="2"/>
<text x="56" y="340" font-size="15" font-weight="700" fill="#1E3A5F">3. animalsGo</text>
<text x="544" y="340" font-size="12" text-anchor="end" fill="#34495E">say · protocol</text>
<text x="56" y="360" font-size="12" fill="#34495E">say &quot;animalsGo&quot;</text>
<line x1="300" y1="376" x2="300" y2="398" stroke="#1E3A5F" stroke-width="2" marker-end="url(#arrow)"/>
<rect x="40" y="400" width="520" height="86" rx="12" fill="#E8EEF6" stroke="#1E3A5F" stroke-width="2"/>
<text x="56" y="424" font-size="15" font-weight="700" fill="#1E3A5F">4. animals</text>
<text x="544" y="424" font-size="12" text-anchor="end" fill="#34495E">respond · protocol</text>
<text x="56" y="444" font-size="12" fill="#34495E">respond ≤ 60 s · &quot;Stop.&quot; at limit</text>
<rect x="56" y="454" width="82.8" height="20" rx="10" fill="#FFFFFF" stroke="#1E3A5F"/>
<text x="97.4" y="468" font-size="11" text-anchor="middle" fill="#1E3A5F">listening</text>
<rect x="144.8" y="454" width="82.8" height="20" rx="10" fill="#FFFFFF" stroke="#1E3A5F"/>
<text x="186.20000000000002" y="468" font-size="11" text-anchor="middle" fill="#1E3A5F">capturing</text>
<rect x="233.60000000000002" y="454" width="68.4" height="20" rx="10" fill="#FFFFFF" stroke="#1E3A5F"/>
<text x="267.8" y="468" font-size="11" text-anchor="middle" fill="#1E3A5F">judging</text>
<line x1="300" y1="486" x2="300" y2="508" stroke="#1E3A5F" stroke-width="2" marker-end="url(#arrow)"/>
<rect x="40" y="510" width="520" height="60" rx="12" fill="#E8EEF6" stroke="#1E3A5F" stroke-width="2"/>
<text x="56" y="534" font-size="15" font-weight="700" fill="#1E3A5F">5. secondGo</text>
<text x="544" y="534" font-size="12" text-anchor="end" fill="#34495E">say · protocol</text>
<text x="56" y="554" font-size="12" fill="#34495E">say &quot;secondGo&quot;</text>
<line x1="300" y1="570" x2="300" y2="592" stroke="#1E3A5F" stroke-width="2" marker-end="url(#arrow)"/>
<rect x="40" y="594" width="520" height="86" rx="12" fill="#E8EEF6" stroke="#1E3A5F" stroke-width="2"/>
<text x="56" y="618" font-size="15" font-weight="700" fill="#1E3A5F">6. second</text>
<text x="544" y="618" font-size="12" text-anchor="end" fill="#34495E">respond · protocol</text>
<text x="56" y="638" font-size="12" fill="#34495E">respond ≤ 60 s · &quot;Stop.&quot; at limit</text>
<rect x="56" y="648" width="82.8" height="20" rx="10" fill="#FFFFFF" stroke="#1E3A5F"/>
<text x="97.4" y="662" font-size="11" text-anchor="middle" fill="#1E3A5F">listening</text>
<rect x="144.8" y="648" width="82.8" height="20" rx="10" fill="#FFFFFF" stroke="#1E3A5F"/>
<text x="186.20000000000002" y="662" font-size="11" text-anchor="middle" fill="#1E3A5F">capturing</text>
<rect x="233.60000000000002" y="648" width="68.4" height="20" rx="10" fill="#FFFFFF" stroke="#1E3A5F"/>
<text x="267.8" y="662" font-size="11" text-anchor="middle" fill="#1E3A5F">judging</text>
<line x1="300" y1="680" x2="300" y2="702" stroke="#1E3A5F" stroke-width="2" marker-end="url(#arrow)"/>
<rect x="230" y="704" width="140" height="36" rx="18" fill="#1E3A5F"/>
<text x="300" y="727" font-size="13" font-weight="700" text-anchor="middle" fill="#FFFFFF">complete (final)</text>
<line x1="596" y1="126" x2="596" y2="637" stroke="#34495E" stroke-width="2" stroke-dasharray="4 4"/>
<line x1="560" y1="126" x2="596" y2="126" stroke="#34495E" stroke-width="1" stroke-dasharray="4 4"/>
<line x1="560" y1="236" x2="596" y2="236" stroke="#34495E" stroke-width="1" stroke-dasharray="4 4"/>
<line x1="560" y1="346" x2="596" y2="346" stroke="#34495E" stroke-width="1" stroke-dasharray="4 4"/>
<line x1="560" y1="443" x2="596" y2="443" stroke="#34495E" stroke-width="1" stroke-dasharray="4 4"/>
<line x1="560" y1="540" x2="596" y2="540" stroke="#34495E" stroke-width="1" stroke-dasharray="4 4"/>
<line x1="560" y1="637" x2="596" y2="637" stroke="#34495E" stroke-width="1" stroke-dasharray="4 4"/>
<rect x="608" y="333.5" width="180" height="96" rx="12" fill="#FFFFFF" stroke="#34495E" stroke-width="2"/>
<text x="698" y="359.5" font-size="13" font-weight="700" text-anchor="middle" fill="#1E3A5F">paused</text>
<text x="698" y="379.5" font-size="11" text-anchor="middle" fill="#34495E">PAUSE from any step</text>
<text x="698" y="397.5" font-size="11" text-anchor="middle" fill="#34495E">RESUME → same step</text>
<text x="698" y="415.5" font-size="11" text-anchor="middle" fill="#34495E">ABORT → complete</text>
</svg>
